<?xml version="1.0" encoding="utf-8"?>
<!-- Generator: Adobe Illustrator 22.1.0, SVG Export Plug-In . SVG Version: 6.00 Build 0)  -->
<svg version="1.1" id="Layer_1" xmlns="http://www.w3.org/2000/svg" xmlns:xlink="http://www.w3.org/1999/xlink" x="0px" y="0px"
	 viewBox="0 0 400.1 400" style="enable-background:new 0 0 400.1 400;" xml:space="preserve">
<style type="text/css">
	.st0{fill:#FFFFFF;}
</style>
<g id="Camada_x0020_1">
	<path class="st0" d="M124.4,177.8c0-4,1.6-7.6,4.2-10.2c2.6-2.6,6.2-4.2,10.2-4.2c1.9,0,3.7,0.3,5.4,1c0-0.1,0-0.3,0-0.5
		c0-9.4,2.6-18.3,7.1-26c4-6.8,9.4-12.7,16-17.3l-4.9-8.3c-1.4-2.2-1.7-4.7-1-7c0.6-2.3,2.1-4.4,4.2-5.8c2.2-1.3,4.8-1.6,7.1-1
		c2.3,0.6,4.4,2.1,5.7,4.3l5.9,9.9c2-0.6,4-1,6-1.4c3.1-0.5,6.3-0.8,9.4-0.8c3.4,0,6.7,0.3,9.9,0.9c2.2,0.4,4.3,0.9,6.4,1.5
		l6.1-10.1c1.4-2.2,3.5-3.7,5.8-4.3c2.3-0.6,4.9-0.3,7,1c2.2,1.4,3.7,3.5,4.3,5.8c0.6,2.3,0.3,4.9-1,7l-5.3,8.8
		c6.3,4.6,11.6,10.4,15.5,17.1c4.3,7.6,6.8,16.4,6.8,25.6c0,0.3,0,0.6-0.1,0.9c1.9-0.9,3.9-1.4,6.2-1.4c4,0,7.6,1.6,10.2,4.2
		c2.6,2.6,4.2,6.2,4.2,10.2v56.8c0,4-1.6,7.6-4.2,10.2c-2.6,2.6-6.2,4.2-10.2,4.2c-2.3,0-4.4-0.5-6.3-1.4v1.5c0,4.9-2,9.2-5.2,12.4
		c-0.1,0.1-0.2,0.2-0.3,0.3c-3.1,3-7.4,4.9-12.2,4.9h-3v20.5c0,4.1-1.6,7.7-4.3,10.4c-2.7,2.7-6.3,4.3-10.4,4.3
		c-4,0-7.7-1.6-10.4-4.3s-4.3-6.3-4.3-10.4v-20.5h-9.4v20.5c0,4.1-1.6,7.7-4.3,10.4c-2.7,2.7-6.3,4.3-10.4,4.3
		c-4,0-7.7-1.6-10.4-4.3c-2.7-2.7-4.3-6.3-4.3-10.4v-20.5h-3.5c-4.9,0-9.3-2-12.4-5.2c-3.2-3.1-5.2-7.6-5.2-12.4v-1.5
		c-1.9,0.9-4,1.4-6.3,1.4c-4,0-7.6-1.6-10.2-4.2c-2.6-2.6-4.2-6.2-4.2-10.2V177.8z M218.9,134.1c2.2,0,4.1,1.8,4.1,4.1
		c0,2.3-1.8,4.1-4.1,4.1c-2.3,0-4.1-1.8-4.1-4.1C214.8,136,216.6,134.1,218.9,134.1z M181.2,134.1c2.3,0,4.1,1.8,4.1,4.1
		c0,2.3-1.8,4.1-4.1,4.1c-2.2,0-4.1-1.8-4.1-4.1C177.2,136,179,134.1,181.2,134.1z M152.5,159.8h94.4c-0.6-6.3-2.5-12.2-5.6-17.5
		c-3.8-6.7-9.3-12.3-16-16.4c-1.9-1.2-2.5-3.7-1.3-5.6l0.1-0.2l7.1-11.9c0.2-0.3,0.2-0.6,0.2-0.9c-0.1-0.3-0.3-0.6-0.6-0.7
		c-0.3-0.2-0.6-0.2-0.9-0.2c-0.3,0.1-0.6,0.3-0.7,0.6l-7.8,12.9c-1,1.7-3.1,2.4-4.9,1.7c-2.6-0.9-5.4-1.7-8.3-2.1
		c-2.8-0.5-5.6-0.7-8.5-0.7c-2.8,0-5.6,0.2-8.2,0.7c-2.7,0.4-5.3,1.1-7.8,2c-1.9,0.7-4-0.2-4.9-1.9l-7.5-12.5
		c-0.2-0.3-0.4-0.5-0.7-0.6c-0.3,0-0.7,0-0.9,0.2c-0.3,0.1-0.5,0.4-0.6,0.7c-0.1,0.3,0,0.6,0.1,0.9l7,11.6c1.1,1.9,0.5,4.4-1.4,5.6
		l0,0h0c-6.9,4.1-12.6,9.8-16.5,16.5C155.1,147.3,153.1,153.3,152.5,159.8z M153.2,177.8v56.8V249c0,2.6,1,5,2.8,6.6
		c1.7,1.7,4.1,2.8,6.7,2.8h7.7c2.2,0,4.1,1.8,4.1,4.1v24.6c0,1.8,0.7,3.5,1.9,4.7c1.2,1.2,2.8,1.9,4.6,1.9c1.8,0,3.5-0.7,4.6-1.9
		c1.2-1.2,1.9-2.8,1.9-4.7v-24.6c0-2.3,1.8-4.1,4.1-4.1h17.5c2.2,0,4.1,1.8,4.1,4.1v24.6c0,1.8,0.7,3.5,1.9,4.7
		c1.2,1.2,2.8,1.9,4.6,1.9c1.8,0,3.5-0.7,4.6-1.9c1.2-1.2,1.9-2.8,1.9-4.7v-24.6c0-2.3,1.8-4.1,4.1-4.1h7.1c2.5,0,4.8-1,6.5-2.6
		l0.2-0.2c1.7-1.7,2.8-4.1,2.8-6.6v-14.5v-56.8v-9.8h-93.6V177.8z M256.8,173.3c-1.1,1.1-1.8,2.7-1.8,4.5v56.8
		c0,1.7,0.7,3.3,1.8,4.5c1.1,1.1,2.7,1.8,4.5,1.8c1.7,0,3.3-0.7,4.5-1.8s1.8-2.7,1.8-4.5v-56.8c0-1.7-0.7-3.3-1.8-4.5
		s-2.7-1.8-4.5-1.8C259.5,171.5,258,172.2,256.8,173.3z M134.3,173.3c-1.1,1.1-1.8,2.7-1.8,4.5v56.8c0,1.7,0.7,3.3,1.8,4.5
		c1.1,1.1,2.7,1.8,4.5,1.8c1.7,0,3.3-0.7,4.5-1.8l0,0c1.1-1.1,1.8-2.7,1.8-4.5v-56.8c0-1.7-0.7-3.3-1.8-4.5l0,0l0,0
		c-1.1-1.1-2.7-1.8-4.5-1.8C137.1,171.5,135.5,172.2,134.3,173.3z"/>
</g>
</svg>
