<?xml version="1.0" encoding="utf-8"?>
<!-- Generator: Adobe Illustrator 22.1.0, SVG Export Plug-In . SVG Version: 6.00 Build 0)  -->
<svg version="1.1" id="Layer_1" xmlns="http://www.w3.org/2000/svg" xmlns:xlink="http://www.w3.org/1999/xlink" x="0px" y="0px"
	 viewBox="0 0 803 985" style="enable-background:new 0 0 803 985;" xml:space="preserve">
<style type="text/css">
	.st0{fill:#FFFFFF;stroke:#221E20;stroke-width:0.5;}
</style>
<g>
	<path class="st0" d="M776.2,333.8l0.3,0.2v2l-0.3,0.2l-0.2,0.3l-17.8,13.3c-11.8,8.8-22.2,17.9-31.2,27.2s-17,19.5-24,30.5
		s-12.7,22-17,33s-7.7,22.2-10,33.5s-3.5,27-3.5,47s1.3,36.3,4,49s6.5,25,11.5,37s11,23.3,18,34s14.3,20,22,28s15.6,15.4,23.8,22.2
		c8.1,6.9,17.5,13.5,28.2,19.8s16.5,9.7,17.5,10l1.5,0.5l1,0.5l1,0.5l1,0.3l1,0.2v2l-13.2,33c-8.9,22-18.1,41.7-27.6,59.2
		c-9.5,17.5-20.5,35.5-33.2,53.8s-24.1,33.6-34.2,45.8c-10.2,12.1-19.5,22.1-28,30c-8.5,7.8-17.3,14.4-26.3,19.7s-18,9.3-27,12
		s-14.8,4.2-17.5,4.5l-4,0.5l-1,0.3l-1,0.2l-8-0.2c-5.3-0.2-13.3-1.3-24-3.3s-26.8-6.8-48.5-14.5c-21.7-7.7-38.7-12.8-51-15.5
		s-25-4-38-4s-24.7,1-35,3s-25.3,6.5-45,13.5s-35.7,12.2-48,15.5l-18.5,5l-4,0.5l-4,0.5v0.5h-20v-0.5l-3.5-0.5l-3.5-0.5l-2-0.5
		c-1.3-0.3-3.7-1-7-2s-9.2-3.5-17.5-7.5s-17.3-9.8-27-17.5s-18.7-16-27-25s-19.4-22.7-33.3-41.2c-13.8-18.5-25.6-35.7-35.4-51.6
		c-9.9-15.8-19.4-33.3-28.6-52.4C52.1,766.6,43.7,746.3,36,725s-14.2-43-19.5-65s-9.4-44.7-12.3-68L0,557v-45h0.5l3-26
		c2-17.3,5-33.7,9-49s8.8-29.5,14.5-42.5S39.2,369,46.5,357s14.8-22.4,22.3-31.2c7.5-8.9,15.4-17.1,23.7-24.8s18.8-15.5,31.5-23.5
		s25.5-14.7,38.5-20c13-5.3,26-9.3,39-12s27.2-4,42.5-4s31,2,47,6s36.2,10.3,60.5,19s38.7,13.5,43,14.5s9.5,1.3,15.5,1
		s26.2-6.3,60.5-18c34.3-11.7,58.2-18.8,71.5-21.5s27.5-4,42.5-4s30.8,1.7,47.5,5s31,7.3,43,12c12,4.7,23.3,10.1,33.8,16.3
		c10.5,6.1,20.2,13,29.2,20.7s17.2,15.8,24.5,24.5s11.4,13.6,12.3,14.8C775.6,332.9,776.1,333.6,776.2,333.8z"/>
	<path class="st0" d="M591,0.2V0h7l0.2,5.5c0.2,3.7,0,12-0.7,25s-2.3,25-5,36s-6.3,22-11,33s-10.7,22.3-18,34s-15.1,22.1-23.3,31.3
		c-8.1,9.1-17.1,17.6-27,25.4c-9.8,7.9-19.6,14.4-29.4,19.6c-9.9,5.1-20.8,9.2-32.8,12.2s-23.5,4.6-34.5,4.8L400,227l0.8-23
		c0.5-15.3,2.2-29,5.2-41s7.1-23.4,12.2-34.2c5.2-10.9,11.1-21.1,17.8-30.8c6.7-9.7,13.8-18.8,21.5-27.5c7.7-8.7,16.3-16.7,26-24
		c9.7-7.3,20-14,31-20s22.7-11.2,35-15.5s22.3-7.2,30-8.5S591,0.4,591,0.2z"/>
</g>
</svg>
