<?xml version="1.0" encoding="utf-8"?>
<!-- Generator: Adobe Illustrator 22.1.0, SVG Export Plug-In . SVG Version: 6.00 Build 0)  -->
<svg version="1.1" id="Layer_1" xmlns="http://www.w3.org/2000/svg" xmlns:xlink="http://www.w3.org/1999/xlink" x="0px" y="0px"
	 viewBox="0 0 114 75" style="enable-background:new 0 0 114 75;" xml:space="preserve">
<style type="text/css">
	.st0{fill:#FFFFFF;}
</style>
<g transform="translate(-5.7109 -1002.7)">
	<path class="st0" d="M111.2,1004.1v5.9c-9.5,5.3-15.7,10.2-18.6,14.6s-4.4,9.4-4.4,15.1c0,2.6,0.5,4.6,1.4,5.9c1,1.3,2.2,2,3.4,2
		c0.9,0,2.4-0.4,4.5-1.1s4.1-1.1,6.2-1.1c3.9,0,7.3,1.4,10.1,4.2s4.2,6.2,4.2,10.3c0,4.5-1.8,8.4-5.4,11.8s-8,5.1-13.1,5.1
		c-6.2,0-11.8-2.7-16.8-8s-7.5-12.1-7.5-20.2c0-9.8,3.2-18.8,9.5-27C90.9,1013.3,99.8,1007.5,111.2,1004.1L111.2,1004.1z
		 M44.1,1004.1v5.9c-8.2,4.2-14,8.7-17.6,13.4s-5.4,9.9-5.4,15.4c0,3.3,0.5,5.6,1.4,6.9c0.9,1.2,2,1.8,3.1,1.8
		c1.2,0,2.9-0.4,4.9-1.1c2.2-0.8,4-1.1,5.6-1.1c3.8,0,7.2,1.5,10.1,4.4s4.3,6.4,4.3,10.4c0,4.5-1.7,8.4-5.2,11.7s-7.7,4.9-12.8,4.9
		c-6.4,0-12.1-2.7-17.2-8.2c-5.1-5.5-7.6-12.2-7.6-20.2c0-9.4,3.1-18.1,9.4-26.2S32.3,1008,44.1,1004.1L44.1,1004.1z"/>
</g>
</svg>
