<?xml version="1.0" standalone="no"?>
<!DOCTYPE svg PUBLIC "-//W3C//DTD SVG 20010904//EN"
 "http://www.w3.org/TR/2001/REC-SVG-20010904/DTD/svg10.dtd">
<svg version="1.0" xmlns="http://www.w3.org/2000/svg"
 width="220.000000pt" height="220.000000pt" viewBox="0 0 220.000000 220.000000"
 preserveAspectRatio="xMidYMid meet">
<metadata>
Created by potrace 1.11, written by Peter Selinger 2001-2013
</metadata>
<g transform="translate(0.000000,220.000000) scale(0.100000,-0.100000)"
fill="#000000" stroke="none">
<path d="M802 1869 c-205 -20 -422 -226 -510 -485 -27 -79 -46 -224 -38 -288
3 -28 9 -69 11 -90 27 -205 207 -466 406 -592 140 -88 288 -82 444 19 48 30
54 32 125 27 168 -11 336 82 473 263 65 85 87 128 116 221 47 152 34 331 -33
471 -55 115 -122 177 -221 207 -31 9 -45 11 -180 28 -154 19 -164 22 -300 116
-132 90 -196 112 -293 103z m134 -97 c23 -12 84 -50 136 -85 121 -82 176 -102
318 -112 163 -13 245 -49 306 -137 73 -106 103 -292 70 -432 -53 -226 -274
-450 -464 -472 l-54 -6 89 88 c212 213 284 384 209 502 -34 54 -90 81 -154 77
-30 -2 -79 -20 -146 -54 l-101 -51 -110 1 c-107 0 -143 -6 -176 -33 -74 -60
-85 -207 -25 -326 33 -66 115 -156 178 -198 l58 -38 -33 -19 c-52 -32 -109
-49 -164 -49 -178 -1 -433 256 -513 517 -88 292 35 625 292 788 105 67 203 80
284 39z m527 -678 c51 -50 44 -116 -24 -231 -35 -58 -193 -231 -261 -284 l-38
-30 -49 27 c-143 77 -246 253 -212 363 20 68 38 76 170 76 l116 0 105 52 c121
60 156 64 193 27z"/>
</g>
</svg>
